<svg width="74" height="37" viewBox="0 0 74 37" fill="none" xmlns="http://www.w3.org/2000/svg">
<path d="M4.77549 0.800171L0.392575 0.827709L0.376035 18.8037C0.370522 32.0489 0.381548 36.7962 0.425653 36.8513C0.475271 36.9174 1.14787 36.9284 4.2297 36.9284H7.9731L8.00617 36.7852C8.02823 36.7026 8.03374 31.0411 8.0172 24.1954C8.00066 17.3553 8.00617 11.7433 8.03374 11.7268C8.09438 11.6882 8.14952 11.8094 8.41414 12.5308C8.53543 12.8778 8.67877 13.2578 8.72288 13.368C8.76147 13.4836 8.83865 13.6819 8.88827 13.8085C8.93789 13.9407 8.99853 14.0949 9.0261 14.1555C9.16393 14.4915 9.32381 14.9155 9.62703 15.7526C10.3768 17.8179 10.4705 18.0712 10.5367 18.2309C10.5753 18.3191 10.7517 18.7817 10.9226 19.2498C11.0935 19.7179 11.2865 20.2246 11.3471 20.3788C11.4078 20.5275 11.4905 20.7478 11.5346 20.858C11.5787 20.9736 11.6503 21.1719 11.7 21.2985C11.7496 21.4307 11.8212 21.629 11.8653 21.7391C11.9095 21.8548 11.9756 22.042 12.0197 22.1522C12.0638 22.2678 12.2513 22.78 12.4387 23.2977C12.6262 23.8099 12.8136 24.3331 12.8632 24.4543C12.9073 24.5754 12.979 24.7627 13.0176 24.8673C13.0562 24.9719 13.1389 25.1812 13.1995 25.3354C13.2602 25.4841 13.4862 26.0954 13.7067 26.6847C13.9217 27.274 14.1312 27.8468 14.1698 27.9514C14.2139 28.0561 14.2801 28.2433 14.3297 28.3645C14.3738 28.4856 14.451 28.6894 14.5006 28.8161C14.5502 28.9483 14.6274 29.1575 14.677 29.2842C14.7267 29.4164 14.7983 29.6091 14.8424 29.7138C14.881 29.8184 14.9913 30.1268 15.085 30.4022C15.2835 30.9695 15.3386 31.1126 15.5812 31.724C15.6804 31.9663 15.7907 32.2582 15.8348 32.3683C15.8789 32.484 15.9506 32.6822 16.0002 32.8089C16.0498 32.9411 16.1215 33.1338 16.1656 33.2385C16.2042 33.3431 16.4026 33.8773 16.6011 34.4226C16.8051 34.9678 17.0201 35.5351 17.0752 35.6893C17.1359 35.838 17.2461 36.1354 17.3178 36.3446C17.5494 36.989 17.2572 36.9284 20.2122 36.9284C22.6269 36.9284 22.7923 36.9229 22.875 36.8293C22.9632 36.7301 23.0514 36.5043 23.6138 34.9458C23.7516 34.5658 23.928 34.0811 24.0162 33.8718C24.0989 33.657 24.2478 33.2605 24.347 32.9907C24.4407 32.7153 24.5951 32.3022 24.6833 32.0654C24.7715 31.8341 24.9149 31.4486 25.0031 31.2118C25.0913 30.9805 25.2401 30.5619 25.3394 30.2921C25.4331 30.0167 25.5434 29.7083 25.5875 29.6036C25.6261 29.499 25.7749 29.0859 25.9183 28.6949C26.0561 28.2984 26.2105 27.8798 26.2601 27.7587C26.3042 27.6375 26.3758 27.4448 26.42 27.3291C26.5357 27.0262 26.6515 26.7123 26.7397 26.4755C26.7838 26.3653 27.0099 25.7485 27.2414 25.1151C27.473 24.4763 27.699 23.865 27.7431 23.7493C27.8148 23.5566 27.8809 23.3803 28.0629 22.8957C28.107 22.7855 28.2172 22.4661 28.3165 22.1962C28.4157 21.9209 28.5646 21.5133 28.6472 21.2875C29.1875 19.8446 29.2757 19.6023 29.3584 19.36C29.397 19.2553 29.5128 18.9304 29.6231 18.644C29.7278 18.3576 29.9263 17.8124 30.0641 17.4324C30.3012 16.766 30.7533 15.5434 30.9738 14.9816C31.0289 14.8274 31.1502 14.508 31.2384 14.2657C31.5141 13.4946 31.6739 13.0651 31.7897 12.7511C31.8559 12.5859 31.9661 12.2775 32.0378 12.0627C32.104 11.8534 32.1922 11.6717 32.2253 11.6607C32.2694 11.6442 32.2914 15.0918 32.2969 24.2725L32.3135 36.9009H36.0899H39.8664L39.883 18.8973C39.8885 8.19104 39.8719 0.866261 39.8444 0.838722C39.8113 0.805679 31.3211 0.772636 29.4356 0.800171C29.397 0.800171 29.3474 0.882782 29.3143 0.976406C29.2868 1.07554 29.1655 1.417 29.0442 1.73642C28.9229 2.05585 28.7079 2.63412 28.5646 3.03065C28.2889 3.80168 26.8775 7.62378 26.7342 7.98727C26.6901 8.10843 26.6184 8.29568 26.5798 8.40032C26.5357 8.50496 26.4365 8.76381 26.3538 8.97859C26.2711 9.18787 26.1002 9.66701 25.9679 10.0305C25.8411 10.3995 25.6812 10.8346 25.615 10.9943C25.5489 11.1595 25.4607 11.3798 25.4221 11.4844C25.3835 11.5891 25.2953 11.8094 25.2346 11.9636C25.1023 12.2885 24.0879 15.0091 24.0162 15.2294C23.9887 15.3065 23.9225 15.4883 23.8619 15.6425C23.8012 15.7912 23.498 16.5842 23.1893 17.4048C22.8805 18.2199 22.5773 19.013 22.5167 19.1672C22.4615 19.3159 22.3513 19.6023 22.2796 19.8005C21.8937 20.8524 21.8055 21.0948 21.7338 21.304C21.6897 21.4307 21.596 21.673 21.5353 21.8383C21.4692 22.0035 21.3975 22.2017 21.3699 22.2789C21.3424 22.356 21.2707 22.5542 21.2046 22.7194C21.1384 22.8847 21.0667 23.0829 21.0392 23.16C21.0116 23.2371 20.9124 23.507 20.8131 23.7658C20.7139 24.0247 20.5595 24.4653 20.4658 24.7461C20.2342 25.4291 20.1791 25.4125 19.8814 24.5369C19.8538 24.4598 19.7877 24.2725 19.727 24.1238C19.6664 23.9696 19.4293 23.3418 19.1923 22.7194C18.9607 22.0971 18.7181 21.4638 18.6575 21.3151C18.5969 21.1609 18.5086 20.9406 18.4645 20.8194C18.4204 20.6982 18.3488 20.511 18.3102 20.4064C18.2661 20.3017 18.1062 19.8666 17.9463 19.4426C17.7919 19.0185 17.6155 18.5449 17.5549 18.3962C17.4997 18.242 17.417 18.0327 17.3785 17.928C17.3399 17.8234 17.202 17.4599 17.0697 17.1295C16.7224 16.2373 16.6397 16.017 16.4633 15.5323C16.3806 15.29 16.2317 14.8825 16.1325 14.6236C16.0388 14.3648 15.9395 14.0949 15.912 14.0178C15.8844 13.9407 15.8182 13.7535 15.7576 13.6048C15.697 13.4506 15.4819 12.8833 15.278 12.3381C15.0795 11.7929 14.8755 11.2531 14.8314 11.1375C14.7873 11.0273 14.7211 10.8401 14.677 10.7244C14.5172 10.2893 14.4289 10.0635 14.2691 9.66701C14.1753 9.44121 13.9493 8.82989 13.7619 8.31771C13.4035 7.32088 13.2988 7.04 13.183 6.77565C13.0286 6.41216 12.9735 6.27448 12.9349 6.14231C12.9073 6.0652 12.8357 5.86694 12.7695 5.70172C12.7033 5.5365 12.5159 5.02431 12.345 4.57271C12.1741 4.1156 12.0087 3.65849 11.9646 3.55385C11.8598 3.27297 11.5842 2.51847 11.314 1.76396C11.0053 0.915825 10.9502 0.800171 10.8454 0.789158C10.6911 0.767128 9.24111 0.772636 4.77549 0.800171Z" fill="white"/>
<path d="M43.3893 0.816673C43.3231 0.855225 43.3121 2.29264 43.3121 11.2917V21.7226L43.4334 21.7887C43.5216 21.8382 46.2065 21.8438 54.3383 21.8272C60.2704 21.8107 65.155 21.7832 65.1881 21.7611C65.2873 21.7006 65.2818 15.5268 65.1881 15.4662C65.1495 15.4442 61.9464 15.4332 58.0762 15.4442L51.0305 15.4607L50.9753 15.3175C50.9202 15.1633 50.8926 7.59623 50.9533 7.44202C50.9863 7.35941 51.692 7.3539 59.1402 7.3539C67.1398 7.3539 67.2886 7.3539 67.3492 7.24926C67.4264 7.09506 67.4264 0.998415 67.3437 0.84421L67.2831 0.734062L55.3748 0.750586C48.8307 0.761599 43.4334 0.794643 43.3893 0.816673Z" fill="white"/>
<path d="M68.6118 21.7777C68.2589 21.8438 67.5698 22.1302 67.2059 22.3615C66.1584 23.0334 65.5299 24.234 65.5299 25.5557C65.5299 26.4479 65.7946 27.2465 66.5058 28.5022C66.5664 28.6068 66.7208 28.8822 66.8476 29.108C67.1122 29.5816 67.1563 29.6532 67.3658 29.9781C67.4485 30.1103 67.5147 30.226 67.5147 30.2425C67.5147 30.259 67.5918 30.3802 67.68 30.5124C67.7738 30.6445 67.8454 30.7657 67.8454 30.7822C67.8454 30.7987 67.9171 30.9144 68.0053 31.0466C68.088 31.1787 68.27 31.4541 68.4078 31.6689C69.1962 32.897 69.2789 33.0127 69.356 32.9852C69.4001 32.9686 69.538 32.7869 69.6593 32.5886C69.7861 32.3849 70.0452 31.9718 70.2436 31.6689C71.0486 30.4242 71.5061 29.6752 71.8921 28.9758C72.3662 28.1056 72.8072 27.2134 72.8072 27.1088C72.8072 27.0703 72.8293 27.0152 72.8569 26.9876C72.8844 26.9546 72.9616 26.7288 73.0223 26.481C73.5184 24.5479 72.4323 22.5652 70.5138 21.8878C70.1499 21.7612 69.0583 21.7006 68.6118 21.7777ZM69.8467 23.865C70.2933 24.0247 70.591 24.2395 70.7894 24.5534C71.2691 25.3079 71.1533 26.2386 70.5028 26.7949C70.1224 27.1198 69.8412 27.23 69.334 27.23C68.4629 27.2355 67.7958 26.6847 67.6249 25.8201C67.4595 24.9775 67.9833 24.1128 68.8157 23.854C69.1851 23.7438 69.5049 23.7493 69.8467 23.865Z" fill="white"/>
<path d="M43.3783 24.4928C43.2846 24.5864 43.2846 36.7687 43.3783 36.8623C43.4279 36.9119 46.2396 36.9284 55.6946 36.9284C66.2908 36.9284 67.9502 36.9174 68.0108 36.8513C68.088 36.7577 68.099 36.7907 67.2941 35.1385C65.7284 31.9332 64.9345 30.3416 64.8573 30.281C64.7912 30.226 63.2861 30.2094 57.8888 30.1984L51.0029 30.1819L50.9864 27.3787C50.9809 25.418 50.9533 24.5534 50.9147 24.4983C50.8265 24.3992 43.483 24.3882 43.3783 24.4928Z" fill="white"/>
<path d="M69.3891 34.5933C69.1576 34.6924 68.926 34.9017 68.7661 35.1661C68.6779 35.3092 68.6503 35.4469 68.6448 35.7443C68.6448 36.24 68.8157 36.5539 69.2237 36.8183C69.4718 36.978 69.5545 37 69.8743 37C70.4366 37 70.8335 36.7522 71.0486 36.273C71.4014 35.469 70.7564 34.5052 69.8577 34.5107C69.7089 34.5107 69.4939 34.5492 69.3891 34.5933Z" fill="white"/>
</svg>
